<svg data-v-423bf9ae="" xmlns="http://www.w3.org/2000/svg" viewBox="0 0 279 90" class="iconLeft"><!----><!----><!----><g data-v-423bf9ae="" id="c4a7f457-745c-4106-9e55-896e5c2d10e2" fill="#2A1B3C" transform="matrix(6.571741429126384,0,0,6.571741429126384,92.70117985597142,-14.638555826349396)"><path d="M5.03 12.15L5.45 13.12L5.45 13.12Q5.15 13.37 4.72 13.50L4.72 13.50L4.72 13.50Q4.28 13.64 3.82 13.64L3.82 13.64L3.82 13.64Q2.70 13.64 2.09 13.03L2.09 13.03L2.09 13.03Q1.47 12.43 1.47 11.31L1.47 11.31L1.47 7.24L0.21 7.24L0.21 6.13L1.47 6.13L1.47 4.51L2.81 4.51L2.81 6.13L4.94 6.13L4.94 7.24L2.81 7.24L2.81 11.26L2.81 11.26Q2.81 11.86 3.12 12.18L3.12 12.18L3.12 12.18Q3.42 12.50 3.98 12.50L3.98 12.50L3.98 12.50Q4.59 12.50 5.03 12.15L5.03 12.15ZM9.77 6.06L9.77 6.06Q11.31 6.06 12.13 6.82L12.13 6.82L12.13 6.82Q12.95 7.57 12.95 9.07L12.95 9.07L12.95 13.55L11.68 13.55L11.68 12.57L11.68 12.57Q11.34 13.09 10.72 13.36L10.72 13.36L10.72 13.36Q10.09 13.64 9.24 13.64L9.24 13.64L9.24 13.64Q7.99 13.64 7.25 13.03L7.25 13.03L7.25 13.03Q6.50 12.43 6.50 11.45L6.50 11.45L6.50 11.45Q6.50 10.47 7.21 9.88L7.21 9.88L7.21 9.88Q7.92 9.28 9.48 9.28L9.48 9.28L11.61 9.28L11.61 9.02L11.61 9.02Q11.61 8.15 11.10 7.69L11.10 7.69L11.10 7.69Q10.60 7.22 9.62 7.22L9.62 7.22L9.62 7.22Q8.96 7.22 8.33 7.44L8.33 7.44L8.33 7.44Q7.70 7.66 7.27 8.02L7.27 8.02L6.71 7.01L6.71 7.01Q7.28 6.55 8.08 6.31L8.08 6.31L8.08 6.31Q8.88 6.06 9.77 6.06L9.77 6.06ZM9.46 12.60L9.46 12.60Q10.23 12.60 10.79 12.26L10.79 12.26L10.79 12.26Q11.35 11.91 11.61 11.28L11.61 11.28L11.61 10.25L9.53 10.25L9.53 10.25Q7.83 10.25 7.83 11.40L7.83 11.40L7.83 11.40Q7.83 11.96 8.26 12.28L8.26 12.28L8.26 12.28Q8.69 12.60 9.46 12.60L9.46 12.60ZM16.73 7.38L16.73 7.38Q17.08 6.73 17.77 6.40L17.77 6.40L17.77 6.40Q18.45 6.06 19.43 6.06L19.43 6.06L19.43 7.36L19.43 7.36Q19.32 7.35 19.12 7.35L19.12 7.35L19.12 7.35Q18.03 7.35 17.41 8.00L17.41 8.00L17.41 8.00Q16.79 8.65 16.79 9.86L16.79 9.86L16.79 13.55L15.44 13.55L15.44 6.13L16.73 6.13L16.73 7.38ZM24.36 13.64L24.36 13.64Q23.25 13.64 22.37 13.15L22.37 13.15L22.37 13.15Q21.49 12.66 20.99 11.79L20.99 11.79L20.99 11.79Q20.50 10.93 20.50 9.84L20.50 9.84L20.50 9.84Q20.50 8.75 20.99 7.89L20.99 7.89L20.99 7.89Q21.49 7.03 22.37 6.54L22.37 6.54L22.37 6.54Q23.25 6.06 24.36 6.06L24.36 6.06L24.36 6.06Q25.47 6.06 26.34 6.54L26.34 6.54L26.34 6.54Q27.22 7.03 27.71 7.89L27.71 7.89L27.71 7.89Q28.21 8.75 28.21 9.84L28.21 9.84L28.21 9.84Q28.21 10.93 27.71 11.79L27.71 11.79L27.71 11.79Q27.22 12.66 26.34 13.15L26.34 13.15L26.34 13.15Q25.47 13.64 24.36 13.64L24.36 13.64ZM24.36 12.46L24.36 12.46Q25.07 12.46 25.64 12.13L25.64 12.13L25.64 12.13Q26.21 11.80 26.53 11.21L26.53 11.21L26.53 11.21Q26.85 10.61 26.85 9.84L26.85 9.84L26.85 9.84Q26.85 9.07 26.53 8.48L26.53 8.48L26.53 8.48Q26.21 7.88 25.64 7.56L25.64 7.56L25.64 7.56Q25.07 7.24 24.36 7.24L24.36 7.24L24.36 7.24Q23.65 7.24 23.08 7.56L23.08 7.56L23.08 7.56Q22.51 7.88 22.18 8.48L22.18 8.48L22.18 8.48Q21.85 9.07 21.85 9.84L21.85 9.84L21.85 9.84Q21.85 10.61 22.18 11.21L22.18 11.21L22.18 11.21Q22.51 11.80 23.08 12.13L23.08 12.13L23.08 12.13Q23.65 12.46 24.36 12.46L24.36 12.46Z"></path></g><defs data-v-423bf9ae=""><linearGradient data-v-423bf9ae="" gradientTransform="rotate(25)" id="0f4324c3-a9f9-4f1e-a346-4a69fb4f0afa" x1="0%" y1="0%" x2="100%" y2="0%"><stop data-v-423bf9ae="" offset="0%" style="stop-color: rgb(54, 22, 172); stop-opacity: 1;"></stop><stop data-v-423bf9ae="" offset="100%" style="stop-color: rgb(224, 155, 237); stop-opacity: 1;"></stop></linearGradient></defs><g data-v-423bf9ae="" id="7cfe7399-19fa-41fc-9c3e-d120151241b7" transform="matrix(2.8125,0,0,2.8125,-7.170000076293945,0)" stroke="none" fill="url(#0f4324c3-a9f9-4f1e-a346-4a69fb4f0afa)"><path d="M2.83 18.247l26.34-9.124L2.83 0zM29.17 32V13.753L2.83 22.877z"></path></g><!----></svg>